<svg width="414" height="400" viewBox="0 0 414 400" fill="none" xmlns="http://www.w3.org/2000/svg">
<path d="M88.9071 14.073H97.701C139.331 14.073 173.075 47.8043 173.075 89.4182V238.073H13.5327V89.4182C13.5327 47.8043 47.2817 14.073 88.9071 14.073Z" fill="url(#paint0_linear_2536_1763)"/>
<path d="M122.312 149.562V240.401H51.4375V149.562H122.312ZM124.147 147.727H49.6025V242.236H124.147V147.727Z" fill="#CA7358"/>
<path d="M124.147 147.391H49.6025V166.93H124.147V147.391Z" fill="#202430"/>
<path d="M49.245 100.492V240.856H6.55075V100.492H49.245ZM51.0799 98.658H4.71582V242.69H51.0799V98.658Z" fill="#202430"/>
<path d="M180.832 72.0942V240.384H124.504V72.0942H180.832ZM182.667 70.26H122.669V242.218H182.667V70.26Z" fill="#202430"/>
<path d="M146.886 93.2063H147.762C151.914 93.2063 155.276 96.5675 155.276 100.717V118.193H139.372V100.717C139.372 96.5675 142.739 93.2063 146.886 93.2063Z" fill="#CA7358"/>
<path d="M137.556 106.833H157.098" stroke="#30242A" stroke-linecap="round" stroke-linejoin="round"/>
<path d="M146.886 138.034H147.762C151.914 138.034 155.276 141.395 155.276 145.545V163.03H139.372V145.55C139.372 141.4 142.735 138.039 146.886 138.039V138.034Z" fill="#FBFBFB"/>
<path d="M137.556 151.667H157.098" stroke="#30242A" stroke-linecap="round" stroke-linejoin="round"/>
<path d="M146.886 182.868H147.762C151.914 182.868 155.276 186.229 155.276 190.379V207.855H139.372V190.379C139.372 186.229 142.739 182.868 146.886 182.868Z" fill="#FBFBFB"/>
<path d="M137.556 196.495H157.098" stroke="#30242A" stroke-linecap="round" stroke-linejoin="round"/>
<path d="M146.886 227.686H147.762C151.914 227.686 155.276 231.047 155.276 235.197V251.247H139.372V235.197C139.372 231.047 142.739 227.686 146.886 227.686Z" fill="#30242A"/>
<path d="M18.4408 130.35H19.317C23.4685 130.35 26.831 133.711 26.831 137.861V155.336H10.9268V137.861C10.9268 133.711 14.2939 130.35 18.4408 130.35Z" fill="#FBFBFB"/>
<path d="M9.11035 143.977H28.6524" stroke="#202430" stroke-linecap="round" stroke-linejoin="round"/>
<path d="M18.4408 175.177H19.317C23.4685 175.177 26.831 178.538 26.831 182.688V200.173H10.9268V182.693C10.9222 178.543 14.2847 175.182 18.4362 175.177C18.4408 175.177 18.4408 175.177 18.4408 175.177Z" fill="#FBFBFB"/>
<path d="M9.11035 188.811H28.6524" stroke="#202430" stroke-linecap="round" stroke-linejoin="round"/>
<path d="M18.4408 220.01H19.317C23.4685 220.01 26.831 223.371 26.831 227.521V244.997H10.9268V227.521C10.9268 223.371 14.2939 220.01 18.4408 220.01Z" fill="#FBFBFB"/>
<path d="M9.11035 233.638H28.6524" stroke="#202430" stroke-linecap="round" stroke-linejoin="round"/>
<path d="M182.667 70.26H122.669V77.7574H182.667V70.26Z" fill="#202430"/>
<path d="M51.0799 94.6853H4.71582V102.183H51.0799V94.6853Z" fill="#202430"/>
<path d="M78.9201 184.986H63.0112V205.433H78.9201V184.986Z" fill="#FBFBFB"/>
<path d="M61.1899 194.074H80.7365" stroke="#202430" stroke-linecap="round" stroke-linejoin="round"/>
<path d="M70.9658 206.341V194.074" stroke="#202430" stroke-linecap="round" stroke-linejoin="round"/>
<path d="M78.9201 221.914H63.0112V242.361H78.9201V221.914Z" fill="#FBFBFB"/>
<path d="M61.1899 230.997H80.7365" stroke="#30242A" stroke-linecap="round" stroke-linejoin="round"/>
<path d="M70.9658 243.268V230.997" stroke="#30242A" stroke-linecap="round" stroke-linejoin="round"/>
<path d="M108.917 184.986H93.0078V205.433H108.917V184.986Z" fill="#FBFBFB"/>
<path d="M91.1914 194.074H110.738" stroke="#202430" stroke-linecap="round" stroke-linejoin="round"/>
<path d="M100.962 206.341V194.074" stroke="#202430" stroke-linecap="round" stroke-linejoin="round"/>
<path d="M108.917 221.914H93.0078V242.361H108.917V221.914Z" fill="#FBFBFB"/>
<path d="M91.1914 230.997H110.738" stroke="#30242A" stroke-linecap="round" stroke-linejoin="round"/>
<path d="M100.962 243.268V230.997" stroke="#30242A" stroke-linecap="round" stroke-linejoin="round"/>
<path d="M60.167 69.5764C66.6934 69.5764 71.984 64.2878 71.984 57.764C71.984 51.2402 66.6934 45.9517 60.167 45.9517C53.6407 45.9517 48.3501 51.2402 48.3501 57.764C48.3501 64.2878 53.6407 69.5764 60.167 69.5764Z" fill="#FBFBFB"/>
<path d="M193.53 238.147H-6.92236V251.78H193.53V238.147Z" fill="#FBFBFB"/>
<path d="M96.4713 0.513428H90.1362C40.3133 0.513428 -0.101074 40.903 -0.101074 90.7204V251.779H186.713V90.7204C186.713 40.903 146.308 0.513428 96.4713 0.513428ZM86.4847 238.146H13.5462V124.557H86.4847V238.146ZM86.4847 110.924H13.5462V91.1836C13.5462 50.2392 45.5841 16.4482 86.4847 14.2563V110.924ZM173.075 238.146H100.137V124.557H173.075V238.146ZM173.075 110.924H100.137V14.2563C141.037 16.4482 173.075 50.2392 173.075 91.1836V110.924Z" fill="#FBFBFB"/>
<path d="M141.303 226.173C141.303 226.173 109.807 150.603 108.431 130.903C103.807 64.6006 175.763 102.372 187.016 108.892C195.209 113.643 227.339 131.614 233.752 138.02C237.88 142.147 235.009 145.205 235.009 145.205C235.009 145.205 239.83 151.534 233.05 152.286C237.871 158.614 230.183 159.471 230.183 159.471C230.183 159.471 232.243 165.648 224.256 163.791C215.65 161.787 150.4 133.554 150.4 133.554C150.4 133.554 164.979 179.56 169.529 194.115L141.303 226.173Z" fill="#A15842"/>
<path d="M211.641 158.523C213.191 158.215 214.237 157.321 213.934 155.4C212.948 149.09 202.402 143.129 202.402 143.129C202.402 143.129 206.631 132.954 198.328 125.094" stroke="#30242A" stroke-miterlimit="10" stroke-linecap="round"/>
<path d="M230.077 159.146C226.293 156.931 212.42 148.819 209.131 147.132" stroke="#30242A" stroke-miterlimit="10" stroke-linecap="round"/>
<path d="M233.178 152.08C228.444 149.246 216.912 142.07 212.15 139.575" stroke="#30242A" stroke-miterlimit="10" stroke-linecap="round"/>
<path d="M234.899 144.33C228.935 140.377 217.687 133.054 213.237 130.807" stroke="#30242A" stroke-miterlimit="10" stroke-linecap="round"/>
<path d="M208.599 146.261C210.186 143.39 212.902 137.686 213.049 128.542" stroke="#30242A" stroke-miterlimit="10" stroke-linecap="round"/>
<path d="M150.225 134.627L139.482 129.748" stroke="#30242A" stroke-linecap="round" stroke-linejoin="round"/>
<path d="M62.9656 349.057H-13.4639V357.893H62.9656V349.057Z" fill="#3A4151"/>
<path d="M75.5532 394.899L56.6213 281.337H68.218C70.8007 281.337 72.8971 279.242 72.8971 276.66C72.8971 274.079 70.8007 271.983 68.218 271.983H-18.6063C-21.1889 271.983 -23.2853 274.079 -23.2853 276.66C-23.2853 279.242 -21.1889 281.337 -18.6063 281.337H-7.13795L-26.0698 394.889C-26.4368 397.026 -24.9964 399.053 -22.8587 399.42C-22.6385 399.457 -22.4183 399.475 -22.1981 399.475C-20.3495 399.475 -18.7531 398.187 -18.3586 396.384L6.7387 281.337H42.763L67.8373 396.38C68.2272 398.182 69.8236 399.47 71.6723 399.47C73.8421 399.475 75.6036 397.719 75.6082 395.554C75.6082 395.334 75.5899 395.114 75.5532 394.899Z" fill="white"/>
<path d="M68.2182 281.337C70.8009 281.337 72.8973 279.242 72.8973 276.66C72.8973 274.079 70.8009 271.983 68.2182 271.983H-18.6061C-21.1887 271.983 -23.2852 274.079 -23.2852 276.66C-23.2852 279.242 -21.1887 281.337 -18.6061 281.337H-7.13777L-7.1607 281.48H6.68843L6.72054 281.337H42.7448L42.7769 281.48H56.6444L56.6215 281.337H68.2182Z" fill="#3A4151"/>
<path d="M361.009 184.785H360.894C360.077 186.261 354.697 195.29 345.242 195.29C335.788 195.29 330.407 186.261 329.586 184.785H329.475L314.759 251.188H375.725L361.009 184.785Z" fill="url(#paint1_linear_2536_1763)"/>
<path d="M321.732 220.106C334.219 221.413 353.609 232.561 360.348 250.994" stroke="#FBFBFB" stroke-miterlimit="10" stroke-linecap="round"/>
<path d="M329.824 251.531C331.223 236.514 343.127 211.692 364.55 203.929" stroke="#FBFBFB" stroke-miterlimit="10" stroke-linecap="round"/>
<path d="M345.017 190.396C339.756 195.94 333.123 201.104 325.618 204.57" stroke="#FBFBFB" stroke-miterlimit="10" stroke-linecap="round"/>
<path d="M345.242 195.29C354.696 195.29 360.077 186.261 360.894 184.785H329.585C330.407 186.261 335.783 195.29 345.242 195.29Z" fill="#FBFBFB"/>
<path d="M259.34 399.47C257.115 399.47 255.308 397.668 255.308 395.44C255.308 395.013 255.376 394.587 255.509 394.179L268.161 355.697C268.712 354.05 270.253 352.941 271.992 352.945H280.845C283.07 352.945 284.877 354.747 284.882 356.971C284.882 357.659 284.708 358.338 284.368 358.943L262.863 397.425C262.143 398.691 260.799 399.475 259.34 399.47Z" fill="#A15842"/>
<path d="M428.598 399.47C430.823 399.47 432.631 397.668 432.631 395.44C432.631 395.013 432.562 394.587 432.429 394.179L419.777 355.697C419.226 354.05 417.681 352.941 415.947 352.945H407.088C404.864 352.945 403.056 354.752 403.056 356.976C403.056 357.664 403.235 358.343 403.57 358.943L425.075 397.425C425.796 398.691 427.144 399.475 428.598 399.47Z" fill="#FBFBFB"/>
<path d="M448.126 250.435H240.522V369.238H448.126V250.435Z" fill="url(#paint2_linear_2536_1763)"/>
<path d="M432.502 265.746V353.917H256.147V265.746H432.502ZM434.337 263.912H254.312V355.751H434.337V263.912Z" fill="#202430"/>
<path d="M344.132 263.747V355.926" stroke="#202430" stroke-miterlimit="10"/>
<path d="M364.995 315.179C367.947 315.179 370.339 312.787 370.339 309.836C370.339 306.886 367.947 304.494 364.995 304.494C362.044 304.494 359.651 306.886 359.651 309.836C359.651 312.787 362.044 315.179 364.995 315.179Z" fill="#30242A"/>
<path d="M323.654 315.179C326.606 315.179 328.999 312.787 328.999 309.836C328.999 306.886 326.606 304.494 323.654 304.494C320.703 304.494 318.31 306.886 318.31 309.836C318.31 312.787 320.703 315.179 323.654 315.179Z" fill="#30242A"/>
<path d="M38.2582 214.939C45.6759 214.939 51.6853 220.946 51.6853 228.361V272.112H24.8311V228.361C24.8311 220.946 30.845 214.939 38.2582 214.939Z" fill="white"/>
<path d="M51.6898 232.084H24.8311V257.099H51.6898V232.084Z" fill="url(#paint3_linear_2536_1763)"/>
<path d="M44.2263 207.978H32.29V216.429H44.2263V207.978Z" fill="#202430"/>
<path d="M202.503 137.021C211.674 137.021 219.109 129.589 219.109 120.421C219.109 111.253 211.674 103.821 202.503 103.821C193.331 103.821 185.896 111.253 185.896 120.421C185.896 129.589 193.331 137.021 202.503 137.021Z" fill="#30242A"/>
<path d="M189.608 130.683C190.934 131.284 179.69 105.004 174.057 109.168C168.759 113.07 182.901 127.634 189.608 130.683Z" fill="white"/>
<path d="M188.181 130.634C189.282 132.009 215.82 123.297 212.274 117.895C208.87 112.713 187.08 129.267 188.181 130.634Z" fill="white"/>
<path d="M220.705 111.553C226.611 111.553 231.398 106.767 231.398 100.864C231.398 94.9606 226.611 90.175 220.705 90.175C214.8 90.175 210.012 94.9606 210.012 100.864C210.012 106.767 214.8 111.553 220.705 111.553Z" fill="#30242A"/>
<path d="M147.675 290.306H202.278L205.159 276.66H139.367L147.675 290.306Z" fill="#CA7358"/>
<path d="M147.198 245.277C147.198 245.277 158.35 230.722 179.277 229.356L193.172 199.518C189.461 198.926 186.787 198.55 186.787 198.55C187.337 197.22 189.209 192.818 191.47 187.389C187.378 184.669 180.695 179.323 179.149 172.577C184.057 171.839 193.828 167.208 189.97 159.105C185.245 149.168 172.74 156.812 172.74 156.812C168.942 152.506 166.52 147.169 165.777 141.478C164.258 141.634 159.909 141.171 156.822 139.502L156.616 139.383C154.964 142.625 153.483 145.949 152.175 149.347C151.831 150.218 151.501 151.062 151.152 151.864C151.152 151.864 146.836 151.131 145.95 152.915C144.854 155.116 148.138 157.959 148.138 157.959C145.514 162.893 143.189 166.933 144.033 172.05C144.776 176.567 149.038 182.056 159.079 182.973L154.033 198.889L135.225 231.534C138.913 233.694 143.868 237.807 147.198 245.277Z" fill="#CA7358"/>
<path d="M280.084 181.372C274.161 173.985 253.018 143.821 245.959 138.163C241.408 134.522 238.679 137.704 238.679 137.704C238.679 137.704 231.853 133.609 231.853 140.433C225.027 136.338 225.027 144.069 225.027 144.069C225.027 144.069 218.655 142.693 221.389 150.438C224.329 158.766 257.335 218.873 257.335 218.873C257.335 218.873 223.205 206.139 210.012 202.746C207.59 202.122 204.622 201.508 201.627 200.948C199.695 205.47 196.677 212.871 191.81 225.252C185.204 242.012 188.415 258.767 207.531 265.416L210.921 249.367C210.921 249.367 246.243 262.638 265.968 262.101C332.865 260.285 288.277 191.603 280.084 181.372Z" fill="#CA7358"/>
<path d="M165.776 141.479C166.515 147.188 168.946 152.539 172.758 156.854C172.758 156.854 185.263 149.187 189.988 159.147C193.846 167.249 184.075 171.881 179.167 172.619C180.713 179.364 187.396 184.711 191.488 187.43C194.846 179.364 199.057 169.024 201.039 163.127C203.97 154.387 205.484 140.841 192.323 131.056C180.006 121.917 165.891 127.979 162.707 131.161C160.817 133.05 159.038 134.829 156.634 139.415L156.84 139.534C159.909 141.153 164.258 141.616 165.776 141.479Z" fill="#30242A"/>
<path d="M191.81 225.265C196.677 212.912 199.695 205.492 201.627 200.962C198.672 200.407 195.695 199.907 193.19 199.508L179.309 229.356C158.382 230.731 147.23 245.277 147.23 245.277C143.881 237.807 138.927 233.694 135.262 231.52L131.069 238.797C126.711 246.602 126.885 256.144 131.528 263.779L139.363 276.651H205.159L207.53 265.421C188.415 258.781 185.204 242.026 191.81 225.265Z" fill="#3A4151"/>
<path d="M159.363 183.913C162.217 183.9 165.056 183.478 167.795 182.666" stroke="#30242A" stroke-miterlimit="10" stroke-linecap="round"/>
<path d="M226.343 159.752C226.678 158.587 227.504 157.83 229.123 157.945C235.495 158.403 242.316 168.409 242.316 168.409C242.316 168.409 252.11 163.365 260.638 170.954" stroke="#30242A" stroke-miterlimit="10" stroke-linecap="round"/>
<path d="M225.953 143.82C229.513 149.428 236.128 159.87 237.766 162.493" stroke="#30242A" stroke-miterlimit="10" stroke-linecap="round"/>
<path d="M232.522 139.928C236.192 145.33 242.614 154.547 245.05 158.403" stroke="#30242A" stroke-miterlimit="10" stroke-linecap="round"/>
<path d="M239.706 137.81C244.293 143.661 251.321 152.74 253.693 156.61" stroke="#30242A" stroke-miterlimit="10" stroke-linecap="round"/>
<path d="M238.679 162.494C241.431 160.659 246.867 157.491 255.968 156.583" stroke="#30242A" stroke-miterlimit="10" stroke-linecap="round"/>
<path d="M186.681 197.577L178.617 196.61" stroke="#30242A" stroke-miterlimit="10" stroke-linecap="round"/>
<path d="M158.139 285.758L157.685 284.85" stroke="#30242A" stroke-miterlimit="10" stroke-linecap="round"/>
<path d="M210.471 250.248L205.916 248.46" stroke="#30242A" stroke-miterlimit="10" stroke-linecap="round"/>
<path d="M267.799 222.077L257.454 218.015" stroke="#30242A" stroke-miterlimit="10" stroke-linecap="round"/>
<path d="M205.159 276.66H139.367" stroke="#30242A" stroke-linecap="round" stroke-linejoin="round"/>
<path d="M178.617 229.355L171.97 244.194C169.933 248.734 165.419 251.655 160.442 251.655H127.872" stroke="#30242A" stroke-linecap="round" stroke-linejoin="round"/>
<path d="M150.625 163.489C151.409 164.163 154.593 165.08 156.294 162.783" stroke="#30242A" stroke-miterlimit="10" stroke-linecap="round"/>
<path d="M182.947 162.063L177.185 164.296" stroke="#A15842" stroke-miterlimit="10" stroke-linecap="round"/>
<path d="M161.456 153.052C159.685 153.492 157.887 152.419 157.446 150.645C157.428 150.576 157.414 150.507 157.4 150.438" stroke="#30242A" stroke-linecap="round" stroke-linejoin="round"/>
<path d="M176.933 170.183L174.85 178.689C174.492 180.101 175.35 181.537 176.759 181.89C177.171 181.995 177.607 181.995 178.025 181.899L185.8 180.065C187.218 179.721 188.085 178.295 187.741 176.882C187.644 176.479 187.447 176.098 187.176 175.782L181.484 169.128C180.534 168.023 178.869 167.899 177.763 168.853C177.36 169.201 177.071 169.665 176.933 170.183Z" fill="white"/>
<path d="M194.447 367.83C189.897 362.369 174.066 342.61 174.066 342.61" stroke="#30242A" stroke-linecap="round" stroke-linejoin="round"/>
<path d="M317.388 323.525C315.718 319.012 312.654 311.451 308.874 302.372L268.303 314.207L263.652 315.674C265.744 329.197 267.349 335.791 267.349 335.791C267.349 335.791 223.669 295.764 202.283 290.307H147.657L129 399.471H291.896C338.329 399.471 325.131 344.435 317.388 323.525Z" fill="#3A4151"/>
<path d="M273.216 219.199C272.129 216.608 269.358 215.14 266.601 215.7C258.514 217.507 257.885 232.813 255.968 241.636C252.784 256.195 245.958 261.652 245.504 271.203C245.046 280.374 259.61 283.937 259.61 283.937C260.106 288.739 260.61 293.2 261.12 297.314L301.662 285.199C290.543 258.997 277.372 228.727 273.216 219.199Z" fill="#A15842"/>
<path d="M263.629 315.568V315.674L268.28 314.206L263.629 315.568Z" fill="#A15842"/>
<path d="M308.883 302.358C308.763 302.078 308.649 301.794 308.53 301.51L268.303 314.207L308.883 302.358Z" fill="#FFBE21"/>
<path d="M308.53 301.513C306.415 296.442 304.085 290.916 301.649 285.202L261.106 297.317C261.973 304.398 262.831 310.473 263.615 315.572L268.285 314.197L308.53 301.513Z" fill="#FBFBFB"/>
<path d="M185.612 290.165C200.154 305.412 275.35 382.701 298.74 374.906C315.819 369.215 290.671 313.148 288.277 305.769" stroke="#202430" stroke-linecap="round" stroke-linejoin="round"/>
<path d="M287.111 352.23C281.84 347.507 272.432 339.083 267.432 334.635" stroke="#30242A" stroke-linecap="round" stroke-linejoin="round"/>
<path d="M257.789 273.477L258.679 282.983" stroke="#30242A" stroke-linecap="round" stroke-linejoin="round"/>
<path d="M269.221 216.506L270.946 221.339" stroke="#30242A" stroke-linecap="round" stroke-linejoin="round"/>
<path d="M265.092 216.966L267.881 223.821" stroke="#30242A" stroke-linecap="round" stroke-linejoin="round"/>
<path d="M159.368 350.964L159.111 350.886L168.602 290.215H147.657C147.657 290.215 63.9518 322.148 44.841 352.619C26.7761 381.421 59.8553 399.47 69.4107 399.47H152.749L159.368 350.964Z" fill="#3A4151"/>
<path d="M247.321 399.47C258.243 399.47 254.605 387.185 246.862 383.095C239.119 379.005 230.026 374.905 220.471 362.171C210.916 349.437 199.539 352.619 192.259 361.713C192.259 361.713 186.708 359.718 178.552 357.012L172.167 399.466L247.321 399.47Z" fill="#CA7358"/>
<path d="M160.166 351.203L159.368 350.964L152.749 399.47H172.171L178.557 356.999C173.254 355.261 166.855 353.202 160.166 351.203Z" fill="#FBFBFB"/>
<path d="M242.316 394.468L249.037 398.554" stroke="#30242A" stroke-linecap="round" stroke-linejoin="round"/>
<path d="M114.458 340.339C133.569 343.976 141.835 346.301 159.125 351.803" stroke="#30242A" stroke-linecap="round" stroke-linejoin="round"/>
<path d="M236.857 396.742L240.78 399.012" stroke="#30242A" stroke-linecap="round" stroke-linejoin="round"/>
<path d="M193.177 361.149L199.544 363.538" stroke="#30242A" stroke-linecap="round" stroke-linejoin="round"/>
<path d="M346.687 189.745C347.66 184.004 352.082 161.233 362.903 148.911" stroke="#FBFBFB" stroke-miterlimit="10" stroke-linecap="round"/>
<path d="M369.562 168.787C379.01 164.705 385.925 159.672 385.006 157.548C384.087 155.423 375.683 157.01 366.234 161.093C356.786 165.176 349.871 170.208 350.79 172.333C351.709 174.458 360.113 172.87 369.562 168.787Z" fill="#FBFBFB"/>
<path d="M370.521 109.343C373.938 104.787 375.419 100.129 373.83 98.9382C372.241 97.7471 368.183 100.474 364.766 105.029C361.349 109.584 359.868 114.242 361.457 115.434C363.046 116.625 367.104 113.898 370.521 109.343Z" fill="#FBFBFB"/>
<path d="M388.95 140.047C388.285 137.883 383.973 137.186 378.514 138.098C382.509 132.701 384.161 127.432 382.184 125.768C380.206 124.103 375.303 126.616 370.642 131.454C370.642 125.924 369.215 121.787 366.972 121.498C364.11 121.127 360.972 127.157 359.963 134.962C359.664 137.19 359.582 139.442 359.715 141.689C364.096 140.318 368.761 142.757 370.133 147.136C370.481 148.241 370.591 149.406 370.458 150.557C372.624 150.305 374.761 149.856 376.844 149.214C384.363 146.912 389.785 142.808 388.95 140.047Z" fill="white"/>
<path d="M367.55 143.266C365.381 141.432 362.417 140.836 359.706 141.689C359.949 145.408 360.871 148.26 362.28 149.324C363.587 150.557 366.642 150.984 370.45 150.557C370.766 147.797 369.679 145.059 367.55 143.266Z" fill="#FBFBFB"/>
<path d="M343.687 189.016C343.37 182.496 341.476 150.498 334.375 131.601" stroke="#FBFBFB" stroke-miterlimit="10" stroke-linecap="round"/>
<path d="M320.261 170.663C332.462 168.339 342.021 164.708 341.61 162.553C341.2 160.399 330.975 160.537 318.773 162.861C306.571 165.186 297.013 168.817 297.423 170.971C297.834 173.125 308.059 172.988 320.261 170.663Z" fill="#FBFBFB"/>
<path d="M339.581 104.39C337.37 103.904 334.65 107.325 332.764 112.525C330.012 106.398 326.232 102.377 323.819 103.276C321.406 104.174 321.172 109.695 323.113 116.115C318.282 113.419 313.988 112.616 312.635 114.432C310.906 116.725 314.621 122.434 320.934 127.143C322.732 128.496 324.654 129.675 326.677 130.66C327.627 126.171 332.04 123.305 336.531 124.254C337.664 124.493 338.737 124.97 339.677 125.648C340.517 123.64 341.173 121.554 341.636 119.426C343.32 111.74 342.402 105.009 339.581 104.39Z" fill="white"/>
<path d="M331.902 124.604C329.237 125.594 327.264 127.883 326.677 130.666C330.04 132.276 332.976 132.872 334.595 132.17C336.311 131.629 338.182 129.176 339.678 125.654C337.425 124.026 334.508 123.632 331.902 124.604Z" fill="#FBFBFB"/>
<path d="M310.731 138.47V138.497C314.488 140.62 315.998 145.266 314.204 149.191C312.406 153.111 307.91 155.005 303.846 153.561V153.593C314.112 158.284 323.979 158.697 325.865 154.51C327.75 150.323 320.998 143.156 310.731 138.47Z" fill="white"/>
<path d="M311.557 152.423C309.612 151.337 308.92 148.874 310.007 146.93C310.975 145.201 313.057 144.431 314.92 145.114C314.709 142.344 313.135 139.864 310.718 138.497L303.837 153.561C306.443 154.491 309.337 154.065 311.557 152.423Z" fill="#FBFBFB"/>
<path d="M309.86 147.228C308.988 149.136 309.727 151.397 311.557 152.424C313.865 150.732 315.135 147.967 314.92 145.114C312.943 144.394 310.741 145.312 309.86 147.228Z" fill="#FBFBFB"/>
<defs>
<linearGradient id="paint0_linear_2536_1763" x1="173.075" y1="238.073" x2="-38.619" y2="87.2946" gradientUnits="userSpaceOnUse">
<stop stop-color="#FF99C4"/>
<stop offset="1" stop-color="#FFD162"/>
</linearGradient>
<linearGradient id="paint1_linear_2536_1763" x1="375.725" y1="251.188" x2="309.563" y2="190.444" gradientUnits="userSpaceOnUse">
<stop stop-color="#FF99C4"/>
<stop offset="1" stop-color="#FFD162"/>
</linearGradient>
<linearGradient id="paint2_linear_2536_1763" x1="448.126" y1="369.238" x2="345.698" y2="190.248" gradientUnits="userSpaceOnUse">
<stop stop-color="#F5FFA0"/>
<stop offset="1" stop-color="#3EF3E8"/>
</linearGradient>
<linearGradient id="paint3_linear_2536_1763" x1="51.6898" y1="257.099" x2="26.7388" y2="230.308" gradientUnits="userSpaceOnUse">
<stop stop-color="#3A4AE4"/>
<stop offset="0.213542" stop-color="#3B85E6"/>
<stop offset="0.734375" stop-color="#3EE4E8"/>
<stop offset="0.927083" stop-color="#3EF3E8"/>
</linearGradient>
</defs>
</svg>
